:FULLY-SPECIFIED
:FORCE-ALL-JOINTS-BE-3DOF
:DEGREES
1937
root 5.48825 13.7155 28.268 -30.0924 72.9075 -34.3592
lfemur -62.4285 11.8455 -8.7569
ltibia 67.5367 -0 0
lfoot -4.54786 0.257262 -0.118336
ltoes -32.9472 0 0
rfemur -4.64152 -5.8211 18.159
rtibia 62.4055 -0 0
rfoot -25.3868 -29.8578 0.0685667
rtoes -26.8035 0 0
lowerback 12.9297 4.41143 4.31842
upperback -0.81953 6.91639 3.51299
thorax -8.0769 3.28779 -0.00393975
lowerneck -0.350188 14.8775 7.10498
upperneck 5.21497 20.2736 -7.40906
head 3.42516 10.0958 -2.74761
lclavicle -7.34261e-15 -1.35671e-14 0
lhumerus 66.0731 -28.665 52.5081
lradius 44.9903 -0 0
lwrist 5.06317 0 0
lhand -13.3306 34.3657 0.0171832
lfingers 7.12502 -0 0
lthumb 12.7757 63.9992 0.01863
rclavicle -7.34261e-15 -1.35671e-14 0
rhumerus -41.7152 24.3541 -76.3864
rradius 92.1801 -0 0
rwrist -35.7319 0 0
rhand -12.9341 -43.4047 0.0384287
rfingers 7.12502 -0 0
rthumb 13.1544 -72.9353 0.0459609
1938
root 5.36974 13.7225 28.3198 -32.4972 74.0614 -36.8107
lfemur -62.5505 11.6959 -9.59948
ltibia 67.2446 -0 0
lfoot -4.66422 0.597559 -0.132546
ltoes -32.9171 0 0
rfemur -5.11488 -5.83218 18.4944
rtibia 62.6013 -0 0
rfoot -25.577 -30.0167 0.0767071
rtoes -26.7619 0 0
lowerback 12.9959 4.28254 4.35369
upperback -0.802714 6.75939 3.53345
thorax -8.10046 3.21165 0.0265647
lowerneck -0.379145 14.8208 7.07078
upperneck 5.11083 20.1932 -7.46493
head 3.3911 10.0549 -2.7675
lclavicle -7.34261e-15 -1.35671e-14 0
lhumerus 66.7436 -29.4165 51.1988
lradius 47.2929 -0 0
lwrist 6.08823 0 0
lhand -13.3553 34.4715 0.0152227
lfingers 7.12502 -0 0
lthumb 12.752 64.1089 0.0167545
rclavicle -7.34261e-15 -1.35671e-14 0
rhumerus -41.2396 25.0209 -76.2241
rradius 92.3161 -0 0
rwrist -35.8982 0 0
rhand -12.6859 -43.3418 0.0429926
rfingers 7.12502 -0 0
rthumb 13.3932 -72.8529 0.0513556
1939
root 5.25353 13.7293 28.3728 -35.3714 75.2137 -39.7341
lfemur -62.6723 11.5511 -10.4682
ltibia 66.9464 -0 0
lfoot -4.79009 0.949001 -0.146343
ltoes -32.8825 0 0
rfemur -5.59956 -5.84042 18.8433
rtibia 62.7915 -0 0
rfoot -25.7766 -30.1821 0.0845626
rtoes -26.7218 0 0
lowerback 13.065 4.14899 4.39329
upperback -0.785104 6.59747 3.5561
thorax -8.12473 3.13306 0.0578792
lowerneck -0.410029 14.762 7.03471
upperneck 5.00396 20.1097 -7.52178
head 3.35611 10.0125 -2.78761
lclavicle -7.34261e-15 -1.35671e-14 0
lhumerus 67.446 -30.1578 49.8634
lradius 49.6637 -0 0
lwrist 7.08518 0 0
lhand -13.3949 34.5854 0.0126954
lfingers 7.12502 -0 0
lthumb 12.7139 64.2271 0.0142973
rclavicle -7.34261e-15 -1.35671e-14 0
rhumerus -40.7703 25.7102 -76.0657
rradius 92.4775 -0 0
rwrist -36.1027 0 0
rhand -12.429 -43.2751 0.0474033
rfingers 7.12502 -0 0
rthumb 13.6406 -72.7659 0.0565535
1940
root 5.13927 13.7361 28.4266 -38.8255 76.3483 -43.2397
lfemur -62.7937 11.4111 -11.3604
ltibia 66.6429 -0 0
lfoot -4.92491 1.31045 -0.159568
ltoes -32.8435 0 0
rfemur -6.09408 -5.84554 19.2045
rtibia 62.9759 -0 0
rfoot -25.9849 -30.3532 0.0920365
rtoes -26.6832 0 0
lowerback 13.1367 4.01121 4.437
upperback -0.766777 6.43114 3.58084
thorax -8.14967 3.05228 0.0899099
lowerneck -0.44271 14.7014 6.99692
upperneck 4.8947 20.0234 -7.57943
head 3.3203 9.96875 -2.80788
lclavicle -7.34261e-15 -1.35671e-14 0
lhumerus 68.179 -30.886 48.5045
lradius 52.0955 -0 0
lwrist 8.05224 0 0
lhand -13.4488 34.7067 0.00967439
lfingers 7.12502 -0 0
lthumb 12.6619 64.3532 0.0113319
rclavicle -7.34261e-15 -1.35671e-14 0
rhumerus -40.3081 26.42 -75.9113
rradius 92.6633 -0 0
rwrist -36.344 0 0
rhand -12.1642 -43.2048 0.0516074
rfingers 7.12502 -0 0
rthumb 13.8955 -72.6748 0.0614916
